PathFileType	4	(X/Y/Z)	60_2_110_p1_0-205_filt_butterworth.trc
DataRate	CameraRate	NumFrames	NumMarkers	Units	OrigDataRate	OrigDataStartFrame	OrigNumFrames
50.0	50.0	5	27	m	50.0	128	205
Frame#	Time	RHip			RKnee			RAnkle			RBigToe			RSmallToe			RHeel			LHip			LKnee			LAnkle			LBigToe			LSmallToe			LHeel			Neck			Head			Nose			RShoulder			RElbow			RWrist			RThumb			RIndex			RPinky			LShoulder			LElbow			LWrist			LThumb			LIndex			LPinky			
		X1	Y1	Z1	X2	Y2	Z2	X3	Y3	Z3	X4	Y4	Z4	X5	Y5	Z5	X6	Y6	Z6	X7	Y7	Z7	X8	Y8	Z8	X9	Y9	Z9	X10	Y10	Z10	X11	Y11	Z11	X12	Y12	Z12	X13	Y13	Z13	X14	Y14	Z14	X15	Y15	Z15	X16	Y16	Z16	X17	Y17	Z17	X18	Y18	Z18	X19	Y19	Z19	X20	Y20	Z20	X21	Y21	Z21	X22	Y22	Z22	X23	Y23	Z23	X24	Y24	Z24	X25	Y25	Z25	X26	Y26	Z26	X27	Y27	Z27	
128	2.56	0.3290823637536311	0.5296268743745391	0.809248552802942	0.303616791290841	0.10651812894218049	0.7867643076032438	0.2795178342052856	-0.33962622777507134	0.8070373715756187	0.2845233237659508	-0.34840415938881836	0.5533168661411235	0.33887179223663544	-0.3496221994755113	0.5862238272353189	0.26751888074538327	-0.37527646328991393	0.8124819296196722	0.11325632669444728	0.5241372773482379	0.809934900820332	0.11125476973956445	0.1017596855372952	0.7743771872627733	0.1229511067627589	-0.30627638862232687	0.741516447658546	0.11615181537595456	-0.3481285887245582	0.5587396042228403	0.05872739335516873	-0.3516013892985798	0.6016369813868563	0.14359798446916247	-0.37201042492465736	0.7919297922748068	0.21472518704854004	1.0537892933865978	0.7245271190063854	0.2468513466855894	1.310825617655116	0.6464601357326673	0.25945633474439056	1.1825915898480186	0.6013612742134207	0.36459866262157303	0.9891423135071801	0.771622741896073	0.39212159763230636	0.7357654237098058	0.750000597057543	0.26425835370399664	0.8575282079587625	0.6876486742966164	0.19301203776013998	0.955970143651026	0.6392696753332485	0.18715358547351127	0.9759147439126018	0.6012232029607516	0.19682235600842596	0.9088296807362816	0.6053643330701868	0.06950159695089311	1.003098716637684	0.7594036268735411	0.005858543741708674	0.7227673305251467	0.8191771646294767	0.06306181887486516	0.4888836379534428	0.7016723294417379	0.09696748295747201	0.37157619679069664	0.7234272616209445	0.07772360089595465	0.36857312518932855	0.6870071816583548	0.049921162587552304	0.3692005193506677	0.6994813171415765	
129	2.58	0.3287887666726293	0.5293771826287075	0.8099500312324461	0.30306278795152575	0.10496947529486134	0.7878904385591257	0.27950810488673794	-0.3404585330337756	0.8070175552715231	0.2851481029459933	-0.3505394797474014	0.5553665214298111	0.3390725037458226	-0.35000432328507236	0.5859555306444507	0.26759210220899327	-0.37615989307918185	0.8121278707999894	0.11316534561585656	0.5240440555075098	0.8098486638731557	0.11126048309694632	0.10132004654157084	0.7742986456396648	0.12310012473942862	-0.30626635086176063	0.7416505867536881	0.11614748873535247	-0.34783696290222216	0.5581000890229051	0.058730977538613185	-0.3516303953973611	0.6016044234636807	0.14368335606551777	-0.372132119106166	0.7921794525774102	0.2165843389464675	1.0534838606232941	0.7247018891408004	0.24901264180532648	1.3117223188242002	0.6460567608937733	0.2610754962126715	1.1826618020601691	0.6011737382227385	0.3650376452157499	0.98679620993788	0.7758807623959986	0.3929654246251025	0.7366647690140848	0.7522085215194414	0.26612995251672267	0.8570954688008781	0.6869106740364668	0.19347789158213183	0.9574869280666785	0.636548238779999	0.1875907356614844	0.9756724159103761	0.6028001605901534	0.19810436426197792	0.9073941805483118	0.609585100621285	0.07001640162005449	1.0030926440055767	0.7597760473598322	0.005877806245257768	0.7228292432130794	0.8190764082412794	0.06215311409936358	0.48741379143333613	0.7034704449998921	0.09692771772226721	0.37040744414099236	0.7260799125064423	0.0777972978746436	0.3683992042242974	0.6874034867573101	0.047450394393192825	0.3679268542152935	0.7029108581066263	
130	2.6	0.3284625865185107	0.529003232125578	0.8109484744704901	0.3022437070655494	0.10324326851177523	0.7893688790983021	0.27948553966553935	-0.3413182269192625	0.8070102590500149	0.2855391799103675	-0.3530615574736857	0.5568617970693082	0.33936597787276057	-0.35045394154407317	0.5855362608374145	0.2675925736604864	-0.3768718178669705	0.8115280554858271	0.11302166851043541	0.5240270364152678	0.809803853219403	0.11129851027128232	0.1008956628454094	0.7742504935208703	0.12335477802150174	-0.30621518047211793	0.7418448138485758	0.11655887666046798	-0.3472388418770683	0.5566217954065551	0.058729546090383514	-0.35165948281867804	0.601568567819362	0.14385455906487757	-0.37231019890071465	0.7926504457464855	0.21889845195832242	1.0529338352529751	0.72498614767102	0.25109312357821667	1.3120900102595454	0.6462875640738762	0.26263018688735673	1.182724395089218	0.6009678463924127	0.3657446678727587	0.9844291424853072	0.779316850377606	0.39461261560100375	0.7370275938668994	0.7550514488618268	0.2676310643684704	0.8566868287651038	0.6862800861309251	0.19410185847235895	0.9591228390675042	0.634119483264541	0.18825355204476613	0.9755529139504748	0.6047878108136032	0.1990875684912819	0.9060333450702943	0.6129212114311547	0.0707706252850303	1.002972952367843	0.7598670829704874	0.005900934593021065	0.7228782525266626	0.8189864699188458	0.06097607669834787	0.48607996641722573	0.7055177992301533	0.09650051299274628	0.369225789231562	0.7283811333969052	0.07742842032144732	0.368076343871301	0.6877135578394824	0.04418064646677282	0.36605634769046985	0.7068137778992454	
131	2.62	0.3280957484390245	0.5284893321571987	0.8122712012386595	0.30133507830188255	0.10162144108097515	0.7909186556581265	0.27945196264695427	-0.34220996691386	0.8070050753924435	0.2857217481730785	-0.3554453117912082	0.5572820485717216	0.33969868602818104	-0.35098455725222466	0.5850966276460785	0.2675684705132829	-0.37733742005606097	0.81098151827426	0.11282717037165102	0.5240824088746079	0.8097838465958513	0.11140140597144917	0.10047939531968281	0.7742405003706819	0.12373615549455613	-0.30619855711094646	0.7421028028481417	0.1173349308335633	-0.34627777464864906	0.554289344630119	0.058722444731761185	-0.3516841352698881	0.6015333128716128	0.14405065407046583	-0.37249399172344816	0.7931611603934141	0.22136902068681544	1.05221042015513	0.725239759312497	0.2532235906771174	1.3117812309200494	0.646572594866274	0.2642065773714995	1.1826946092049226	0.6012022744333515	0.3667282529805359	0.9825032352494194	0.7815337713248994	0.3970572550745274	0.7367837751858783	0.758294212301877	0.2686652472854543	0.8562562466128263	0.6858683669273207	0.19499406866365693	0.9601588773617442	0.6327118000149701	0.1895399994776502	0.9751776123551342	0.6070950292022369	0.1999589038453198	0.9048602089489644	0.6148078495412975	0.07162024420064377	1.0025384089774434	0.759726753277371	0.005924555498733336	0.7229074334102639	0.8189099778660097	0.05935976046227551	0.48478788941261347	0.708127977871063	0.09545244750969845	0.3678722919837124	0.7299532453702098	0.07626034463259108	0.3676517774788361	0.687831285271296	0.0402036638255826	0.3635422107324173	0.7115316202432522	
132	2.64	0.3276763818540885	0.5278631652426049	0.8138330749500218	0.3004848132582959	0.1002409518759304	0.7923082854450734	0.2794088138428299	-0.34306106102498635	0.8069871323229196	0.2857366256098569	-0.3573799222343048	0.5566752269303907	0.3400311965165549	-0.3516045526284127	0.5847624345481315	0.26756582453805233	-0.37757403933457917	0.8106928540097701	0.11258227335610026	0.5241851997526614	0.8097712450368278	0.11156879112737317	0.10005224573114374	0.7742694351848457	0.12422151474658966	-0.30629578107759475	0.7424170099475476	0.11831534719577402	-0.3450276596445147	0.5513832569008239	0.05871440632837006	-0.3516922816244567	0.6015043924232027	0.14420133742542046	-0.3726625687177787	0.7935315374831727	0.22380686764768098	1.0514300440866322	0.725413647482904	0.2552698013302355	1.3110074399535359	0.6466000252976637	0.2657005358884884	1.182516601480142	0.6022135973149207	0.3679792582594944	0.9814267221275403	0.7822310465815852	0.39985650961808694	0.7361309489601139	0.7613845828294034	0.2693669490292014	0.8556763512616935	0.6858409110679381	0.1960819437465873	0.9603342764803611	0.6323619865399053	0.1915292894402142	0.9743933272743045	0.6095751301011079	0.20084062607015307	0.903875583045685	0.6151998149974518	0.07242284872440585	1.001879988908228	0.759480157781933	0.005937776153618112	0.722913388815229	0.8188430877701411	0.05713695726839681	0.4833472531298223	0.7114511236118967	0.09379711579605492	0.36622797191335416	0.7307771878000237	0.074453381002307	0.36715196103217834	0.6877713118308223	0.035307755418729735	0.36025140578178344	0.7170572493727803	
